G04 Layer: BottomLayer*
G04 EasyEDA v6.4.19.5, 2021-05-28T13:43:00+08:00*
G04 c9c1c6b03ce64626b502aac79231b020,ce7df3decd3943efa2da757d0dc3e78d,10*
G04 Gerber Generator version 0.2*
G04 Scale: 100 percent, Rotated: No, Reflected: No *
G04 Dimensions in millimeters *
G04 leading zeros omitted , absolute positions ,4 integer and 5 decimal *
%FSLAX45Y45*%
%MOMM*%

%ADD11C,0.2600*%
%ADD12C,0.6100*%
%ADD13C,1.5240*%
%ADD14R,1.7780X1.7780*%
%ADD15C,1.7780*%
%ADD16C,1.8288*%
%ADD17C,1.8290*%

%LPD*%
D11*
X1803400Y-8445500D02*
G01*
X1803400Y-5806694D01*
X3189477Y-4420615D01*
X3195065Y-4420615D01*
X2057400Y-8445500D02*
G01*
X2057400Y-5612384D01*
X3122168Y-4547615D01*
X3244341Y-4547615D01*
X3314445Y-4477512D01*
X3314445Y-4285995D01*
X3195065Y-4166615D01*
X10845800Y-6883400D02*
G01*
X10756900Y-6794500D01*
X10756900Y-2324100D01*
X10629900Y-2197100D01*
X1295400Y-8445500D02*
G01*
X1295400Y-3103371D01*
X1621028Y-2777744D01*
X3076193Y-2777744D01*
X3195065Y-2896615D01*
X1671065Y-3150615D02*
G01*
X1549907Y-3271773D01*
X1549907Y-7652004D01*
X1676400Y-7778495D01*
X1676400Y-8470645D01*
X1772920Y-8567165D01*
X4590034Y-8567165D01*
X4699000Y-8458200D01*
X9575800Y-6883400D02*
G01*
X6232906Y-3540505D01*
X1806955Y-3540505D01*
X1671065Y-3404615D01*
X1671065Y-5182615D02*
G01*
X2814065Y-4039615D01*
X3353815Y-4039615D01*
X7747000Y-8432800D01*
X4376420Y-5316220D02*
G01*
X7493000Y-8432800D01*
X2687065Y-5067300D02*
G01*
X2920745Y-5300726D01*
X4106925Y-5300726D01*
X7239000Y-8432800D01*
X10591800Y-6883400D02*
G01*
X10502900Y-6794500D01*
X10502900Y-2150110D01*
X10592815Y-2060447D01*
X10747247Y-2060447D01*
X10883900Y-2197100D01*
X3195065Y-3404615D02*
G01*
X6044184Y-3404615D01*
X7289800Y-2159000D01*
X1549400Y-8445500D02*
G01*
X1507744Y-8403844D01*
X1507744Y-3129026D01*
X1613154Y-3023615D01*
X2814065Y-3023615D01*
X3195065Y-3404615D01*
D13*
G01*
X7239000Y-8432800D03*
G01*
X7493000Y-8432800D03*
G01*
X7747000Y-8432800D03*
G01*
X8001000Y-8432800D03*
G01*
X4445000Y-8458200D03*
G01*
X4699000Y-8458200D03*
G01*
X4953000Y-8458200D03*
G01*
X5207000Y-8458200D03*
G01*
X1295400Y-8445500D03*
G01*
X1549400Y-8445500D03*
G01*
X1803400Y-8445500D03*
G01*
X2057400Y-8445500D03*
D14*
G01*
X1671065Y-2642615D03*
D15*
G01*
X1671065Y-2896615D03*
G01*
X1671065Y-3150615D03*
G01*
X1671065Y-3404615D03*
G01*
X1671065Y-3658615D03*
G01*
X1671065Y-3912615D03*
G01*
X1671065Y-4166615D03*
G01*
X1671065Y-4420615D03*
G01*
X1671065Y-4674615D03*
G01*
X1671065Y-4928615D03*
G01*
X1671065Y-5182615D03*
G01*
X1671065Y-5436615D03*
G01*
X1671065Y-5690615D03*
G01*
X1671065Y-5944615D03*
G01*
X1671065Y-6198615D03*
G01*
X3195065Y-2642615D03*
G01*
X3195065Y-2896615D03*
G01*
X3195065Y-3150615D03*
G01*
X3195065Y-3404615D03*
G01*
X3195065Y-3658615D03*
G01*
X3195065Y-3912615D03*
G01*
X3195065Y-4166615D03*
G01*
X3195065Y-4420615D03*
G01*
X3195065Y-4674615D03*
G01*
X3195065Y-4928615D03*
G01*
X3195065Y-5182615D03*
G01*
X3195065Y-5436615D03*
G01*
X3195065Y-5690615D03*
G01*
X3195065Y-5944615D03*
G01*
X3195065Y-6198615D03*
D13*
G01*
X7289800Y-2159000D03*
G01*
X7035800Y-2159000D03*
G01*
X6781800Y-2159000D03*
G01*
X6527800Y-2159000D03*
G01*
X6273800Y-2159000D03*
G01*
X9575800Y-6883400D03*
G01*
X9829800Y-6883400D03*
G01*
X10083800Y-6883400D03*
G01*
X10337800Y-6883400D03*
G01*
X10591800Y-6883400D03*
G01*
X10845800Y-6883400D03*
D12*
G01*
X4376420Y-5316220D03*
G01*
X2687065Y-5067300D03*
D16*
X9105900Y-4483089D02*
G01*
X9105900Y-4483110D01*
X10883900Y-2197110D02*
G01*
X10883900Y-2197089D01*
X10629900Y-2197110D02*
G01*
X10629900Y-2197089D01*
X10375900Y-2197110D02*
G01*
X10375900Y-2197089D01*
X10121900Y-2197110D02*
G01*
X10121900Y-2197089D01*
X9867900Y-2197110D02*
G01*
X9867900Y-2197089D01*
X9613900Y-2197110D02*
G01*
X9613900Y-2197089D01*
X9359900Y-2197110D02*
G01*
X9359900Y-2197089D01*
X9105900Y-2197110D02*
G01*
X9105900Y-2197089D01*
X10883900Y-4483089D02*
G01*
X10883900Y-4483110D01*
D17*
X10629900Y-4483100D02*
G01*
X10629900Y-4483100D01*
X10375900Y-4483100D02*
G01*
X10375900Y-4483100D01*
D16*
X10121900Y-4483089D02*
G01*
X10121900Y-4483110D01*
X9867900Y-4483089D02*
G01*
X9867900Y-4483110D01*
X9613900Y-4483089D02*
G01*
X9613900Y-4483110D01*
X9359900Y-4483089D02*
G01*
X9359900Y-4483110D01*
M02*
