G04 Layer: TopSolderMaskLayer*
G04 EasyEDA v6.4.20.2, 2021-06-29T15:05:07+08:00*
G04 b87f47585f484af4903ce1153ceaecde,ce7df3decd3943efa2da757d0dc3e78d,10*
G04 Gerber Generator version 0.2*
G04 Scale: 100 percent, Rotated: No, Reflected: No *
G04 Dimensions in millimeters *
G04 leading zeros omitted , absolute positions ,4 integer and 5 decimal *
%FSLAX45Y45*%
%MOMM*%

%ADD23C,2.0320*%
%ADD24C,2.0322*%
%ADD25C,1.7272*%
%ADD26C,2.0032*%
%ADD28C,1.9812*%

%LPD*%
D23*
X9105900Y-4483089D02*
G01*
X9105900Y-4483110D01*
X10883900Y-2197110D02*
G01*
X10883900Y-2197089D01*
X10629900Y-2197110D02*
G01*
X10629900Y-2197089D01*
X10375900Y-2197110D02*
G01*
X10375900Y-2197089D01*
X10121900Y-2197110D02*
G01*
X10121900Y-2197089D01*
X9867900Y-2197110D02*
G01*
X9867900Y-2197089D01*
X9613900Y-2197110D02*
G01*
X9613900Y-2197089D01*
X9359900Y-2197110D02*
G01*
X9359900Y-2197089D01*
X9105900Y-2197110D02*
G01*
X9105900Y-2197089D01*
X10883900Y-4483089D02*
G01*
X10883900Y-4483110D01*
D24*
X10629900Y-4483100D02*
G01*
X10629900Y-4483100D01*
X10375900Y-4483100D02*
G01*
X10375900Y-4483100D01*
D23*
X10121900Y-4483089D02*
G01*
X10121900Y-4483110D01*
X9867900Y-4483089D02*
G01*
X9867900Y-4483110D01*
X9613900Y-4483089D02*
G01*
X9613900Y-4483110D01*
X9359900Y-4483089D02*
G01*
X9359900Y-4483110D01*
D25*
G01*
X9359900Y-8089900D03*
G01*
X9359900Y-7835900D03*
G01*
X9359900Y-7581900D03*
G01*
X9359900Y-7327900D03*
G01*
X9359900Y-7073900D03*
G01*
X9359900Y-6819900D03*
D26*
G01*
X6311900Y-2540000D03*
G01*
X6565900Y-2540000D03*
G01*
X6819900Y-2540000D03*
G01*
X7073900Y-2540000D03*
G01*
X6057900Y-2540000D03*
D25*
G01*
X6692900Y-8458200D03*
G01*
X6946900Y-8458200D03*
G01*
X7200900Y-8458200D03*
G01*
X7454900Y-8458200D03*
G01*
X4445000Y-8458200D03*
G01*
X4699000Y-8458200D03*
G01*
X4953000Y-8458200D03*
G01*
X5207000Y-8458200D03*
G01*
X1295400Y-8445500D03*
G01*
X1549400Y-8445500D03*
G01*
X1803400Y-8445500D03*
G01*
X2057400Y-8445500D03*
G36*
X2415540Y-2740660D02*
G01*
X2415540Y-2542539D01*
X2613659Y-2542539D01*
X2613659Y-2740660D01*
G37*
D28*
G01*
X2514600Y-2895600D03*
G01*
X2514600Y-3149600D03*
G01*
X2514600Y-3403600D03*
G01*
X2514600Y-3657600D03*
G01*
X2514600Y-3911600D03*
G01*
X2514600Y-4165600D03*
G01*
X2514600Y-4419600D03*
G01*
X2514600Y-4673600D03*
G01*
X2514600Y-4927600D03*
G01*
X2514600Y-5181600D03*
G01*
X2514600Y-5435600D03*
G01*
X2514600Y-5689600D03*
G01*
X2514600Y-5943600D03*
G01*
X2514600Y-6197600D03*
G01*
X4038600Y-2641600D03*
G01*
X4038600Y-2895600D03*
G01*
X4038600Y-3149600D03*
G01*
X4038600Y-3403600D03*
G01*
X4038600Y-3657600D03*
G01*
X4038600Y-3911600D03*
G01*
X4038600Y-4165600D03*
G01*
X4038600Y-4419600D03*
G01*
X4038600Y-4673600D03*
G01*
X4038600Y-4927600D03*
G01*
X4038600Y-5181600D03*
G01*
X4038600Y-5435600D03*
G01*
X4038600Y-5689600D03*
G01*
X4038600Y-5943600D03*
G01*
X4038600Y-6197600D03*
M02*
