G04 Layer: BottomLayer*
G04 EasyEDA v6.4.19.5, 2021-06-10T14:33:20+08:00*
G04 9e1f3d37501d475aaa4ecbe86871836b,ce7df3decd3943efa2da757d0dc3e78d,10*
G04 Gerber Generator version 0.2*
G04 Scale: 100 percent, Rotated: No, Reflected: No *
G04 Dimensions in millimeters *
G04 leading zeros omitted , absolute positions ,4 integer and 5 decimal *
%FSLAX45Y45*%
%MOMM*%

%ADD11C,0.2600*%
%ADD12C,0.6100*%
%ADD13C,1.8000*%
%ADD14C,1.5240*%
%ADD15R,1.7780X1.7780*%
%ADD16C,1.7780*%
%ADD17C,1.8288*%
%ADD18C,1.8290*%

%LPD*%
D11*
X2514600Y-4673600D02*
G01*
X2309622Y-4878578D01*
X2309622Y-5920739D01*
X2459481Y-6070600D01*
X2632709Y-6070600D01*
X4907279Y-8344915D01*
X6579615Y-8344915D01*
X6692900Y-8458200D01*
X10654791Y-8241537D02*
G01*
X10756900Y-8139429D01*
X10756900Y-2324100D01*
X10629900Y-2197100D01*
X4038600Y-2895600D02*
G01*
X4528311Y-2405887D01*
X6952488Y-2405887D01*
X7073900Y-2527300D01*
X2514600Y-4927600D02*
G01*
X2351786Y-5090413D01*
X2351786Y-5708142D01*
X2460497Y-5816600D01*
X2654300Y-5816600D01*
X4837684Y-7999984D01*
X6488684Y-7999984D01*
X6946900Y-8458200D01*
X2514600Y-5435600D02*
G01*
X4204970Y-7125970D01*
X6122670Y-7125970D01*
X7454900Y-8458200D01*
X4038600Y-4419600D02*
G01*
X4673600Y-4419600D01*
X6565900Y-2527300D01*
X1803400Y-8445500D02*
G01*
X2157475Y-8091678D01*
X2157475Y-5308600D01*
X2514600Y-4165600D02*
G01*
X3403600Y-5054600D01*
X6451854Y-5054600D01*
X9638791Y-8241537D01*
X6311900Y-2527300D02*
G01*
X4673600Y-4165600D01*
X4038600Y-4165600D01*
X2057400Y-8445500D02*
G01*
X2217165Y-8285734D01*
X2217165Y-4243831D01*
X2422143Y-4038600D01*
X3911600Y-4038600D01*
X4038600Y-4165600D01*
X2304795Y-4240529D02*
G01*
X2259329Y-4285995D01*
X2259329Y-6114287D01*
X4603241Y-8458200D01*
X4699000Y-8458200D01*
X9384791Y-8241537D02*
G01*
X9496806Y-8353552D01*
X9690100Y-8353552D01*
X9765791Y-8277860D01*
X9765791Y-5038344D01*
X10248900Y-4554981D01*
X10248900Y-2688844D01*
X10502900Y-2434844D01*
X10502900Y-2145537D01*
X10577068Y-2071370D01*
X10758170Y-2071370D01*
X10883900Y-2197100D01*
X4038600Y-3403600D02*
G01*
X3657600Y-3784600D01*
X2468879Y-3784600D01*
X1549400Y-4704079D01*
X1549400Y-8445500D01*
X2514600Y-5181600D02*
G01*
X2395474Y-5300726D01*
X2395474Y-5492495D01*
X2465577Y-5562600D01*
X2581656Y-5562600D01*
X4884674Y-7865363D01*
X6608063Y-7865363D01*
X7200900Y-8458200D01*
D13*
G01*
X6311900Y-2540000D03*
G01*
X6565900Y-2540000D03*
G01*
X6819900Y-2540000D03*
G01*
X7073900Y-2540000D03*
G01*
X6057900Y-2540000D03*
D14*
G01*
X9384791Y-8241537D03*
G01*
X9638791Y-8241537D03*
G01*
X9892791Y-8241537D03*
G01*
X10146791Y-8241537D03*
G01*
X10400791Y-8241537D03*
G01*
X10654791Y-8241537D03*
G01*
X6692900Y-8458200D03*
G01*
X6946900Y-8458200D03*
G01*
X7200900Y-8458200D03*
G01*
X7454900Y-8458200D03*
G01*
X4445000Y-8458200D03*
G01*
X4699000Y-8458200D03*
G01*
X4953000Y-8458200D03*
G01*
X5207000Y-8458200D03*
G01*
X1295400Y-8445500D03*
G01*
X1549400Y-8445500D03*
G01*
X1803400Y-8445500D03*
G01*
X2057400Y-8445500D03*
D15*
G01*
X2514600Y-2641600D03*
D16*
G01*
X2514600Y-2895600D03*
G01*
X2514600Y-3149600D03*
G01*
X2514600Y-3403600D03*
G01*
X2514600Y-3657600D03*
G01*
X2514600Y-3911600D03*
G01*
X2514600Y-4165600D03*
G01*
X2514600Y-4419600D03*
G01*
X2514600Y-4673600D03*
G01*
X2514600Y-4927600D03*
G01*
X2514600Y-5181600D03*
G01*
X2514600Y-5435600D03*
G01*
X2514600Y-5689600D03*
G01*
X2514600Y-5943600D03*
G01*
X2514600Y-6197600D03*
G01*
X4038600Y-2641600D03*
G01*
X4038600Y-2895600D03*
G01*
X4038600Y-3149600D03*
G01*
X4038600Y-3403600D03*
G01*
X4038600Y-3657600D03*
G01*
X4038600Y-3911600D03*
G01*
X4038600Y-4165600D03*
G01*
X4038600Y-4419600D03*
G01*
X4038600Y-4673600D03*
G01*
X4038600Y-4927600D03*
G01*
X4038600Y-5181600D03*
G01*
X4038600Y-5435600D03*
G01*
X4038600Y-5689600D03*
G01*
X4038600Y-5943600D03*
G01*
X4038600Y-6197600D03*
D12*
G01*
X2157475Y-5308600D03*
G01*
X2304795Y-4240529D03*
D17*
X9105900Y-4483089D02*
G01*
X9105900Y-4483110D01*
X10883900Y-2197110D02*
G01*
X10883900Y-2197089D01*
X10629900Y-2197110D02*
G01*
X10629900Y-2197089D01*
X10375900Y-2197110D02*
G01*
X10375900Y-2197089D01*
X10121900Y-2197110D02*
G01*
X10121900Y-2197089D01*
X9867900Y-2197110D02*
G01*
X9867900Y-2197089D01*
X9613900Y-2197110D02*
G01*
X9613900Y-2197089D01*
X9359900Y-2197110D02*
G01*
X9359900Y-2197089D01*
X9105900Y-2197110D02*
G01*
X9105900Y-2197089D01*
X10883900Y-4483089D02*
G01*
X10883900Y-4483110D01*
D18*
X10629900Y-4483100D02*
G01*
X10629900Y-4483100D01*
X10375900Y-4483100D02*
G01*
X10375900Y-4483100D01*
D17*
X10121900Y-4483089D02*
G01*
X10121900Y-4483110D01*
X9867900Y-4483089D02*
G01*
X9867900Y-4483110D01*
X9613900Y-4483089D02*
G01*
X9613900Y-4483110D01*
X9359900Y-4483089D02*
G01*
X9359900Y-4483110D01*
M02*
