M48
METRIC,LZ,000.000
;FILE_FORMAT=3:3
;TYPE=PLATED
;Layer: Drill PTH
;EasyEDA v6.4.19.5, 2021-06-10T14:33:20+08:00
;9e1f3d37501d475aaa4ecbe86871836b,ce7df3decd3943efa2da757d0dc3e78d,10
;Gerber Generator version 0.2
;Holesize 1 = 0.310 mm
T01C0.310
;Holesize 2 = 0.915 mm
T02C0.915
;Holesize 3 = 1.016 mm
T03C1.016
;Holesize 4 = 1.101 mm
T04C1.101
%
G05
G90
T01
X021575Y-053086
X023048Y-042405
T02
X093848Y-082415
X096388Y-082415
X098928Y-082415
X101468Y-082415
X104008Y-082415
X106548Y-082415
X066929Y-084582
X069469Y-084582
X072009Y-084582
X074549Y-084582
X044450Y-084582
X046990Y-084582
X049530Y-084582
X052070Y-084582
X012954Y-084455
X015494Y-084455
X018034Y-084455
X020574Y-084455
X025146Y-026416
X025146Y-028956
X025146Y-031496
X025146Y-034036
X025146Y-036576
X025146Y-039116
X025146Y-041656
X025146Y-044196
X025146Y-046736
X025146Y-049276
X025146Y-051816
X025146Y-054356
X025146Y-056896
X025146Y-059436
X025146Y-061976
X040386Y-026416
X040386Y-028956
X040386Y-031496
X040386Y-034036
X040386Y-036576
X040386Y-039116
X040386Y-041656
X040386Y-044196
X040386Y-046736
X040386Y-049276
X040386Y-051816
X040386Y-054356
X040386Y-056896
X040386Y-059436
X040386Y-061976
T03
X091059Y-044831
X108839Y-021971
X106299Y-021971
X103759Y-021971
X101219Y-021971
X098679Y-021971
X096139Y-021971
X093599Y-021971
X091059Y-021971
X108839Y-044831
X106299Y-044831
X103759Y-044831
X101219Y-044831
X098679Y-044831
X096139Y-044831
X093599Y-044831
T04
X063119Y-025400
X065659Y-025400
X068199Y-025400
X070739Y-025400
X060579Y-025400
M30
