G04 Layer: TopLayer*
G04 EasyEDA v6.4.20.2, 2021-06-29T15:05:07+08:00*
G04 b87f47585f484af4903ce1153ceaecde,ce7df3decd3943efa2da757d0dc3e78d,10*
G04 Gerber Generator version 0.2*
G04 Scale: 100 percent, Rotated: No, Reflected: No *
G04 Dimensions in millimeters *
G04 leading zeros omitted , absolute positions ,4 integer and 5 decimal *
%FSLAX45Y45*%
%MOMM*%

%ADD10C,0.2540*%
%ADD11C,0.6100*%
%ADD12C,1.5240*%
%ADD13C,1.8000*%
%ADD14R,1.7780X1.7780*%
%ADD15C,1.7780*%
%ADD16C,1.8288*%
%ADD17C,1.8290*%

%LPD*%
D10*
X2514600Y-4419600D02*
G01*
X2895549Y-4038650D01*
X7772349Y-4038650D01*
X9613900Y-2197100D01*
X9359900Y-7327900D02*
G01*
X5168900Y-7327900D01*
X4038600Y-6197600D01*
X2514600Y-6197600D02*
G01*
X2641600Y-6070600D01*
X8356600Y-6070600D01*
X9359900Y-7073900D01*
X2514600Y-5943600D02*
G01*
X2386634Y-6071565D01*
X2386634Y-6251498D01*
X3717036Y-7581900D01*
X9359900Y-7581900D01*
X4038600Y-3403600D02*
G01*
X5956300Y-3403600D01*
X6819900Y-2540000D01*
X10883900Y-2197100D02*
G01*
X10754715Y-2326284D01*
X10572851Y-2326284D01*
X10502900Y-2256332D01*
X10502900Y-2138298D01*
X10439044Y-2074443D01*
X9057817Y-2074443D01*
X8472830Y-2659430D01*
X6939330Y-2659430D01*
X6819900Y-2540000D01*
X1295400Y-8445500D02*
G01*
X1400302Y-8550402D01*
X4352797Y-8550402D01*
X4445000Y-8458200D01*
X4445000Y-8458200D02*
G01*
X5194300Y-7708900D01*
X9390862Y-7708900D01*
X9465056Y-7634706D01*
X9465056Y-6925055D01*
X9359900Y-6819900D01*
X4038600Y-2895600D02*
G01*
X4517643Y-2416555D01*
X6950456Y-2416555D01*
X7073900Y-2540000D01*
X10629900Y-2197100D02*
G01*
X10466374Y-2033574D01*
X7580325Y-2033574D01*
X7073900Y-2540000D01*
X2514600Y-3149600D02*
G01*
X2374900Y-3289300D01*
X2374900Y-4174439D01*
X4038600Y-4419600D02*
G01*
X3149600Y-5308600D01*
X2140254Y-5308600D01*
D12*
G01*
X9359900Y-8089900D03*
G01*
X9359900Y-7835900D03*
G01*
X9359900Y-7581900D03*
G01*
X9359900Y-7327900D03*
G01*
X9359900Y-7073900D03*
G01*
X9359900Y-6819900D03*
D13*
G01*
X6311900Y-2540000D03*
G01*
X6565900Y-2540000D03*
G01*
X6819900Y-2540000D03*
G01*
X7073900Y-2540000D03*
G01*
X6057900Y-2540000D03*
D12*
G01*
X6692900Y-8458200D03*
G01*
X6946900Y-8458200D03*
G01*
X7200900Y-8458200D03*
G01*
X7454900Y-8458200D03*
G01*
X4445000Y-8458200D03*
G01*
X4699000Y-8458200D03*
G01*
X4953000Y-8458200D03*
G01*
X5207000Y-8458200D03*
G01*
X1295400Y-8445500D03*
G01*
X1549400Y-8445500D03*
G01*
X1803400Y-8445500D03*
G01*
X2057400Y-8445500D03*
D14*
G01*
X2514600Y-2641600D03*
D15*
G01*
X2514600Y-2895600D03*
G01*
X2514600Y-3149600D03*
G01*
X2514600Y-3403600D03*
G01*
X2514600Y-3657600D03*
G01*
X2514600Y-3911600D03*
G01*
X2514600Y-4165600D03*
G01*
X2514600Y-4419600D03*
G01*
X2514600Y-4673600D03*
G01*
X2514600Y-4927600D03*
G01*
X2514600Y-5181600D03*
G01*
X2514600Y-5435600D03*
G01*
X2514600Y-5689600D03*
G01*
X2514600Y-5943600D03*
G01*
X2514600Y-6197600D03*
G01*
X4038600Y-2641600D03*
G01*
X4038600Y-2895600D03*
G01*
X4038600Y-3149600D03*
G01*
X4038600Y-3403600D03*
G01*
X4038600Y-3657600D03*
G01*
X4038600Y-3911600D03*
G01*
X4038600Y-4165600D03*
G01*
X4038600Y-4419600D03*
G01*
X4038600Y-4673600D03*
G01*
X4038600Y-4927600D03*
G01*
X4038600Y-5181600D03*
G01*
X4038600Y-5435600D03*
G01*
X4038600Y-5689600D03*
G01*
X4038600Y-5943600D03*
G01*
X4038600Y-6197600D03*
D11*
G01*
X2140254Y-5308600D03*
G01*
X2374900Y-4174439D03*
D16*
X9105900Y-4483089D02*
G01*
X9105900Y-4483110D01*
X10883900Y-2197110D02*
G01*
X10883900Y-2197089D01*
X10629900Y-2197110D02*
G01*
X10629900Y-2197089D01*
X10375900Y-2197110D02*
G01*
X10375900Y-2197089D01*
X10121900Y-2197110D02*
G01*
X10121900Y-2197089D01*
X9867900Y-2197110D02*
G01*
X9867900Y-2197089D01*
X9613900Y-2197110D02*
G01*
X9613900Y-2197089D01*
X9359900Y-2197110D02*
G01*
X9359900Y-2197089D01*
X9105900Y-2197110D02*
G01*
X9105900Y-2197089D01*
X10883900Y-4483089D02*
G01*
X10883900Y-4483110D01*
D17*
X10629900Y-4483100D02*
G01*
X10629900Y-4483100D01*
X10375900Y-4483100D02*
G01*
X10375900Y-4483100D01*
D16*
X10121900Y-4483089D02*
G01*
X10121900Y-4483110D01*
X9867900Y-4483089D02*
G01*
X9867900Y-4483110D01*
X9613900Y-4483089D02*
G01*
X9613900Y-4483110D01*
X9359900Y-4483089D02*
G01*
X9359900Y-4483110D01*
M02*
