M48
METRIC,LZ,000.000
;FILE_FORMAT=3:3
;TYPE=PLATED
;Layer: Drill PTH
;EasyEDA v6.4.19.5, 2021-05-28T13:43:00+08:00
;c9c1c6b03ce64626b502aac79231b020,ce7df3decd3943efa2da757d0dc3e78d,10
;Gerber Generator version 0.2
;Holesize 1 = 0.310 mm
T01C0.310
;Holesize 2 = 0.915 mm
T02C0.915
;Holesize 3 = 1.016 mm
T03C1.016
%
G05
G90
T01
X043764Y-053162
X026871Y-050673
T02
X072390Y-084328
X074930Y-084328
X077470Y-084328
X080010Y-084328
X044450Y-084582
X046990Y-084582
X049530Y-084582
X052070Y-084582
X012954Y-084455
X015494Y-084455
X018034Y-084455
X020574Y-084455
X016711Y-026426
X016711Y-028966
X016711Y-031506
X016711Y-034046
X016711Y-036586
X016711Y-039126
X016711Y-041666
X016711Y-044206
X016711Y-046746
X016711Y-049286
X016711Y-051826
X016711Y-054366
X016711Y-056906
X016711Y-059446
X016711Y-061986
X031951Y-026426
X031951Y-028966
X031951Y-031506
X031951Y-034046
X031951Y-036586
X031951Y-039126
X031951Y-041666
X031951Y-044206
X031951Y-046746
X031951Y-049286
X031951Y-051826
X031951Y-054366
X031951Y-056906
X031951Y-059446
X031951Y-061986
X072898Y-021590
X070358Y-021590
X067818Y-021590
X065278Y-021590
X062738Y-021590
X095758Y-068834
X098298Y-068834
X100838Y-068834
X103378Y-068834
X105918Y-068834
X108458Y-068834
T03
X091059Y-044831
X108839Y-021971
X106299Y-021971
X103759Y-021971
X101219Y-021971
X098679Y-021971
X096139Y-021971
X093599Y-021971
X091059Y-021971
X108839Y-044831
X106299Y-044831
X103759Y-044831
X101219Y-044831
X098679Y-044831
X096139Y-044831
X093599Y-044831
M30
