G04 Layer: TopSolderMaskLayer*
G04 EasyEDA v6.4.19.5, 2021-05-28T13:43:00+08:00*
G04 c9c1c6b03ce64626b502aac79231b020,ce7df3decd3943efa2da757d0dc3e78d,10*
G04 Gerber Generator version 0.2*
G04 Scale: 100 percent, Rotated: No, Reflected: No *
G04 Dimensions in millimeters *
G04 leading zeros omitted , absolute positions ,4 integer and 5 decimal *
%FSLAX45Y45*%
%MOMM*%

%ADD22C,2.0320*%
%ADD23C,2.0322*%
%ADD24C,1.7272*%
%ADD26C,1.9812*%

%LPD*%
D22*
X9105900Y-4483089D02*
G01*
X9105900Y-4483110D01*
X10883900Y-2197110D02*
G01*
X10883900Y-2197089D01*
X10629900Y-2197110D02*
G01*
X10629900Y-2197089D01*
X10375900Y-2197110D02*
G01*
X10375900Y-2197089D01*
X10121900Y-2197110D02*
G01*
X10121900Y-2197089D01*
X9867900Y-2197110D02*
G01*
X9867900Y-2197089D01*
X9613900Y-2197110D02*
G01*
X9613900Y-2197089D01*
X9359900Y-2197110D02*
G01*
X9359900Y-2197089D01*
X9105900Y-2197110D02*
G01*
X9105900Y-2197089D01*
X10883900Y-4483089D02*
G01*
X10883900Y-4483110D01*
D23*
X10629900Y-4483100D02*
G01*
X10629900Y-4483100D01*
X10375900Y-4483100D02*
G01*
X10375900Y-4483100D01*
D22*
X10121900Y-4483089D02*
G01*
X10121900Y-4483110D01*
X9867900Y-4483089D02*
G01*
X9867900Y-4483110D01*
X9613900Y-4483089D02*
G01*
X9613900Y-4483110D01*
X9359900Y-4483089D02*
G01*
X9359900Y-4483110D01*
D24*
G01*
X7239000Y-8432800D03*
G01*
X7493000Y-8432800D03*
G01*
X7747000Y-8432800D03*
G01*
X8001000Y-8432800D03*
G01*
X4445000Y-8458200D03*
G01*
X4699000Y-8458200D03*
G01*
X4953000Y-8458200D03*
G01*
X5207000Y-8458200D03*
G01*
X1295400Y-8445500D03*
G01*
X1549400Y-8445500D03*
G01*
X1803400Y-8445500D03*
G01*
X2057400Y-8445500D03*
G36*
X1572005Y-2741676D02*
G01*
X1572005Y-2543555D01*
X1770126Y-2543555D01*
X1770126Y-2741676D01*
G37*
D26*
G01*
X1671065Y-2896615D03*
G01*
X1671065Y-3150615D03*
G01*
X1671065Y-3404615D03*
G01*
X1671065Y-3658615D03*
G01*
X1671065Y-3912615D03*
G01*
X1671065Y-4166615D03*
G01*
X1671065Y-4420615D03*
G01*
X1671065Y-4674615D03*
G01*
X1671065Y-4928615D03*
G01*
X1671065Y-5182615D03*
G01*
X1671065Y-5436615D03*
G01*
X1671065Y-5690615D03*
G01*
X1671065Y-5944615D03*
G01*
X1671065Y-6198615D03*
G01*
X3195065Y-2642615D03*
G01*
X3195065Y-2896615D03*
G01*
X3195065Y-3150615D03*
G01*
X3195065Y-3404615D03*
G01*
X3195065Y-3658615D03*
G01*
X3195065Y-3912615D03*
G01*
X3195065Y-4166615D03*
G01*
X3195065Y-4420615D03*
G01*
X3195065Y-4674615D03*
G01*
X3195065Y-4928615D03*
G01*
X3195065Y-5182615D03*
G01*
X3195065Y-5436615D03*
G01*
X3195065Y-5690615D03*
G01*
X3195065Y-5944615D03*
G01*
X3195065Y-6198615D03*
D24*
G01*
X7289800Y-2159000D03*
G01*
X7035800Y-2159000D03*
G01*
X6781800Y-2159000D03*
G01*
X6527800Y-2159000D03*
G01*
X6273800Y-2159000D03*
G01*
X9575800Y-6883400D03*
G01*
X9829800Y-6883400D03*
G01*
X10083800Y-6883400D03*
G01*
X10337800Y-6883400D03*
G01*
X10591800Y-6883400D03*
G01*
X10845800Y-6883400D03*
M02*
