M48
METRIC,LZ,000.000
;FILE_FORMAT=3:3
;TYPE=PLATED
;Layer: Drill PTH
;EasyEDA v6.4.19.5, 2021-05-28T13:43:00+08:00
;7cfbce2159fd45c6b0b03f1904d68946,ce7df3decd3943efa2da757d0dc3e78d,10
;Gerber Generator version 0.2
;Holesize 1 = 0.915 mm
T01C0.915
;Holesize 2 = 1.200 mm
T02C1.200
%
G05
G90
T01
X028702Y058166
X031242Y058166
X033782Y058166
X036322Y058166
X009906Y057912
X012446Y057912
X014986Y057912
X017526Y057912
T02
X010085Y037429
X016585Y037429
X016585Y032929
X010085Y032929
X027738Y031714
X034238Y031714
X034238Y027214
X027738Y027214
X027738Y042128
X034238Y042128
X034238Y037628
X027738Y037628
X035612Y050129
X042112Y050129
X042112Y045629
X035612Y045629
X007799Y050129
X014299Y050129
X014299Y045629
X007799Y045629
M30
