M48
METRIC,LZ,000.000
;FILE_FORMAT=3:3
;TYPE=PLATED
;Layer: Drill PTH
;EasyEDA v6.4.20.2, 2021-06-29T15:05:07+08:00
;0de0488af09f4019b1ce40fc8b5dc9ac,ce7df3decd3943efa2da757d0dc3e78d,10
;Gerber Generator version 0.2
;Holesize 1 = 0.915 mm
T01C0.915
;Holesize 2 = 1.800 mm
T02C1.800
%
G05
G90
T01
X011811Y038735
X014351Y038735
X016891Y038735
X019431Y038735
X044323Y038989
X046863Y038989
X049403Y038989
X051943Y038989
T02
X012673Y070358
X025173Y070358
X025173Y065278
X012673Y065278
X035025Y061976
X047525Y061976
X047525Y056896
X035025Y056896
X035025Y080391
X047525Y080391
X047525Y075311
X035025Y075311
X061568Y080391
X074068Y080391
X074068Y075311
X061568Y075311
X064108Y051435
X076608Y051435
X076608Y046355
X064108Y046355
M30
