G04 Layer: TopSilkLayer*
G04 EasyEDA v6.4.20.2, 2021-06-29T15:05:07+08:00*
G04 0de0488af09f4019b1ce40fc8b5dc9ac,ce7df3decd3943efa2da757d0dc3e78d,10*
G04 Gerber Generator version 0.2*
G04 Scale: 100 percent, Rotated: No, Reflected: No *
G04 Dimensions in millimeters *
G04 leading zeros omitted , absolute positions ,4 integer and 5 decimal *
%FSLAX45Y45*%
%MOMM*%

%ADD10C,0.2540*%
%ADD13C,0.1000*%
%ADD14C,0.1524*%

%LPD*%
D13*
X4408424Y4330954D02*
G01*
X4399534Y4321810D01*
X4394961Y4308094D01*
X4394961Y4289805D01*
X4399534Y4276344D01*
X4408424Y4267200D01*
X4417568Y4267200D01*
X4426711Y4271771D01*
X4431284Y4276344D01*
X4435856Y4285487D01*
X4445000Y4312665D01*
X4449318Y4321810D01*
X4453890Y4326381D01*
X4463034Y4330954D01*
X4476750Y4330954D01*
X4485893Y4321810D01*
X4490465Y4308094D01*
X4490465Y4289805D01*
X4485893Y4276344D01*
X4476750Y4267200D01*
X4394961Y4360926D02*
G01*
X4490465Y4360926D01*
X4394961Y4360926D02*
G01*
X4394961Y4419854D01*
X4440427Y4360926D02*
G01*
X4440427Y4397247D01*
X4490465Y4360926D02*
G01*
X4490465Y4419854D01*
X4394961Y4449826D02*
G01*
X4490465Y4449826D01*
X4490465Y4449826D02*
G01*
X4490465Y4504436D01*
X4394961Y4534407D02*
G01*
X4490465Y4534407D01*
X4394961Y4534407D02*
G01*
X4394961Y4593589D01*
X4440427Y4534407D02*
G01*
X4440427Y4570729D01*
X4490465Y4534407D02*
G01*
X4490465Y4593589D01*
X4417568Y4691634D02*
G01*
X4408424Y4687315D01*
X4399534Y4678171D01*
X4394961Y4669028D01*
X4394961Y4650739D01*
X4399534Y4641850D01*
X4408424Y4632705D01*
X4417568Y4628134D01*
X4431284Y4623562D01*
X4453890Y4623562D01*
X4467606Y4628134D01*
X4476750Y4632705D01*
X4485893Y4641850D01*
X4490465Y4650739D01*
X4490465Y4669028D01*
X4485893Y4678171D01*
X4476750Y4687315D01*
X4467606Y4691634D01*
X4394961Y4753610D02*
G01*
X4490465Y4753610D01*
X4394961Y4721860D02*
G01*
X4394961Y4785360D01*
X4648961Y4292600D02*
G01*
X4717034Y4292600D01*
X4730750Y4297171D01*
X4739893Y4306315D01*
X4744465Y4319778D01*
X4744465Y4328921D01*
X4739893Y4342637D01*
X4730750Y4351781D01*
X4717034Y4356354D01*
X4648961Y4356354D01*
X4648961Y4386326D02*
G01*
X4744465Y4386326D01*
X4648961Y4386326D02*
G01*
X4648961Y4427220D01*
X4653534Y4440681D01*
X4658106Y4445254D01*
X4666995Y4449826D01*
X4680711Y4449826D01*
X4689856Y4445254D01*
X4694427Y4440681D01*
X4699000Y4427220D01*
X4699000Y4386326D01*
X4902961Y4229100D02*
G01*
X4998465Y4229100D01*
X4902961Y4229100D02*
G01*
X4902961Y4260850D01*
X4907534Y4274565D01*
X4916424Y4283710D01*
X4925568Y4288281D01*
X4939284Y4292854D01*
X4961890Y4292854D01*
X4975606Y4288281D01*
X4984750Y4283710D01*
X4993893Y4274565D01*
X4998465Y4260850D01*
X4998465Y4229100D01*
X4902961Y4350004D02*
G01*
X4907534Y4340860D01*
X4916424Y4331715D01*
X4925568Y4327397D01*
X4939284Y4322826D01*
X4961890Y4322826D01*
X4975606Y4327397D01*
X4984750Y4331715D01*
X4993893Y4340860D01*
X4998465Y4350004D01*
X4998465Y4368292D01*
X4993893Y4377181D01*
X4984750Y4386326D01*
X4975606Y4390897D01*
X4961890Y4395470D01*
X4939284Y4395470D01*
X4925568Y4390897D01*
X4916424Y4386326D01*
X4907534Y4377181D01*
X4902961Y4368292D01*
X4902961Y4350004D01*
X4902961Y4425442D02*
G01*
X4998465Y4448302D01*
X4902961Y4470907D02*
G01*
X4998465Y4448302D01*
X4902961Y4470907D02*
G01*
X4998465Y4493768D01*
X4902961Y4516373D02*
G01*
X4998465Y4493768D01*
X4902961Y4546345D02*
G01*
X4998465Y4546345D01*
X4902961Y4546345D02*
G01*
X4998465Y4610100D01*
X4902961Y4610100D02*
G01*
X4998465Y4610100D01*
X5166868Y4322571D02*
G01*
X5157724Y4318254D01*
X5148834Y4309110D01*
X5144261Y4299965D01*
X5144261Y4281678D01*
X5148834Y4272787D01*
X5157724Y4263644D01*
X5166868Y4259071D01*
X5180584Y4254500D01*
X5203190Y4254500D01*
X5216906Y4259071D01*
X5226050Y4263644D01*
X5235193Y4272787D01*
X5239765Y4281678D01*
X5239765Y4299965D01*
X5235193Y4309110D01*
X5226050Y4318254D01*
X5216906Y4322571D01*
X5203190Y4322571D01*
X5203190Y4299965D02*
G01*
X5203190Y4322571D01*
X5144261Y4379976D02*
G01*
X5148834Y4370831D01*
X5157724Y4361687D01*
X5166868Y4357115D01*
X5180584Y4352797D01*
X5203190Y4352797D01*
X5216906Y4357115D01*
X5226050Y4361687D01*
X5235193Y4370831D01*
X5239765Y4379976D01*
X5239765Y4398010D01*
X5235193Y4407154D01*
X5226050Y4416297D01*
X5216906Y4420870D01*
X5203190Y4425442D01*
X5180584Y4425442D01*
X5166868Y4420870D01*
X5157724Y4416297D01*
X5148834Y4407154D01*
X5144261Y4398010D01*
X5144261Y4379976D01*
X5144261Y4455413D02*
G01*
X5239765Y4455413D01*
X5144261Y4455413D02*
G01*
X5239765Y4519168D01*
X5144261Y4519168D02*
G01*
X5239765Y4519168D01*
X5166868Y4617212D02*
G01*
X5157724Y4612639D01*
X5148834Y4603495D01*
X5144261Y4594605D01*
X5144261Y4576318D01*
X5148834Y4567173D01*
X5157724Y4558029D01*
X5166868Y4553712D01*
X5180584Y4549139D01*
X5203190Y4549139D01*
X5216906Y4553712D01*
X5226050Y4558029D01*
X5235193Y4567173D01*
X5239765Y4576318D01*
X5239765Y4594605D01*
X5235193Y4603495D01*
X5226050Y4612639D01*
X5216906Y4617212D01*
X5203190Y4617212D01*
X5203190Y4594605D02*
G01*
X5203190Y4617212D01*
X1153668Y4411471D02*
G01*
X1144523Y4407154D01*
X1135634Y4398010D01*
X1131062Y4388865D01*
X1131062Y4370578D01*
X1135634Y4361687D01*
X1144523Y4352544D01*
X1153668Y4347971D01*
X1167384Y4343400D01*
X1189989Y4343400D01*
X1203705Y4347971D01*
X1212850Y4352544D01*
X1221994Y4361687D01*
X1226565Y4370578D01*
X1226565Y4388865D01*
X1221994Y4398010D01*
X1212850Y4407154D01*
X1203705Y4411471D01*
X1189989Y4411471D01*
X1189989Y4388865D02*
G01*
X1189989Y4411471D01*
X1131062Y4441697D02*
G01*
X1226565Y4441697D01*
X1131062Y4441697D02*
G01*
X1226565Y4505197D01*
X1131062Y4505197D02*
G01*
X1226565Y4505197D01*
X1131062Y4535170D02*
G01*
X1226565Y4535170D01*
X1131062Y4535170D02*
G01*
X1131062Y4566920D01*
X1135634Y4580636D01*
X1144523Y4589779D01*
X1153668Y4594352D01*
X1167384Y4598923D01*
X1189989Y4598923D01*
X1203705Y4594352D01*
X1212850Y4589779D01*
X1221994Y4580636D01*
X1226565Y4566920D01*
X1226565Y4535170D01*
X1372362Y4356100D02*
G01*
X1467865Y4356100D01*
X1372362Y4356100D02*
G01*
X1372362Y4396994D01*
X1376934Y4410710D01*
X1381505Y4415281D01*
X1390395Y4419854D01*
X1399539Y4419854D01*
X1408684Y4415281D01*
X1413255Y4410710D01*
X1417828Y4396994D01*
X1417828Y4356100D01*
X1417828Y4387850D02*
G01*
X1467865Y4419854D01*
X1372362Y4449826D02*
G01*
X1467865Y4449826D01*
X1372362Y4449826D02*
G01*
X1372362Y4508754D01*
X1417828Y4449826D02*
G01*
X1417828Y4486147D01*
X1467865Y4449826D02*
G01*
X1467865Y4508754D01*
X1385823Y4602479D02*
G01*
X1376934Y4593336D01*
X1372362Y4579620D01*
X1372362Y4561586D01*
X1376934Y4547870D01*
X1385823Y4538726D01*
X1394968Y4538726D01*
X1404112Y4543297D01*
X1408684Y4547870D01*
X1413255Y4557013D01*
X1422400Y4584192D01*
X1426718Y4593336D01*
X1431289Y4597907D01*
X1440434Y4602479D01*
X1454150Y4602479D01*
X1463294Y4593336D01*
X1467865Y4579620D01*
X1467865Y4561586D01*
X1463294Y4547870D01*
X1454150Y4538726D01*
X1372362Y4632452D02*
G01*
X1467865Y4632452D01*
X1372362Y4632452D02*
G01*
X1372362Y4691634D01*
X1417828Y4632452D02*
G01*
X1417828Y4668773D01*
X1467865Y4632452D02*
G01*
X1467865Y4691634D01*
X1372362Y4753355D02*
G01*
X1467865Y4753355D01*
X1372362Y4721605D02*
G01*
X1372362Y4785105D01*
X1639062Y4356100D02*
G01*
X1734565Y4356100D01*
X1639062Y4356100D02*
G01*
X1734565Y4419854D01*
X1639062Y4419854D02*
G01*
X1734565Y4419854D01*
X1661668Y4517897D02*
G01*
X1652523Y4513326D01*
X1643634Y4504181D01*
X1639062Y4495292D01*
X1639062Y4477004D01*
X1643634Y4467860D01*
X1652523Y4458715D01*
X1661668Y4454397D01*
X1675384Y4449826D01*
X1697989Y4449826D01*
X1711705Y4454397D01*
X1720850Y4458715D01*
X1729994Y4467860D01*
X1734565Y4477004D01*
X1734565Y4495292D01*
X1729994Y4504181D01*
X1720850Y4513326D01*
X1711705Y4517897D01*
X1880362Y4356100D02*
G01*
X1975865Y4356100D01*
X1880362Y4356100D02*
G01*
X1975865Y4419854D01*
X1880362Y4419854D02*
G01*
X1975865Y4419854D01*
X1902968Y4517897D02*
G01*
X1893823Y4513326D01*
X1884934Y4504181D01*
X1880362Y4495292D01*
X1880362Y4477004D01*
X1884934Y4467860D01*
X1893823Y4458715D01*
X1902968Y4454397D01*
X1916684Y4449826D01*
X1939290Y4449826D01*
X1953006Y4454397D01*
X1962150Y4458715D01*
X1971293Y4467860D01*
X1975865Y4477004D01*
X1975865Y4495292D01*
X1971293Y4504181D01*
X1962150Y4513326D01*
X1953006Y4517897D01*
D14*
X1576578Y3480307D02*
G01*
X1571244Y3490721D01*
X1560829Y3501136D01*
X1550670Y3506215D01*
X1529842Y3506215D01*
X1519428Y3501136D01*
X1509013Y3490721D01*
X1503679Y3480307D01*
X1498600Y3464560D01*
X1498600Y3438652D01*
X1503679Y3423157D01*
X1509013Y3412744D01*
X1519428Y3402329D01*
X1529842Y3397250D01*
X1550670Y3397250D01*
X1560829Y3402329D01*
X1571244Y3412744D01*
X1576578Y3423157D01*
X1642110Y3506215D02*
G01*
X1631695Y3501136D01*
X1621281Y3490721D01*
X1615947Y3480307D01*
X1610868Y3464560D01*
X1610868Y3438652D01*
X1615947Y3423157D01*
X1621281Y3412744D01*
X1631695Y3402329D01*
X1642110Y3397250D01*
X1662684Y3397250D01*
X1673097Y3402329D01*
X1683512Y3412744D01*
X1688845Y3423157D01*
X1693926Y3438652D01*
X1693926Y3464560D01*
X1688845Y3480307D01*
X1683512Y3490721D01*
X1673097Y3501136D01*
X1662684Y3506215D01*
X1642110Y3506215D01*
X1728215Y3506215D02*
G01*
X1728215Y3397250D01*
X1728215Y3506215D02*
G01*
X1800860Y3397250D01*
X1800860Y3506215D02*
G01*
X1800860Y3397250D01*
X1835150Y3506215D02*
G01*
X1835150Y3397250D01*
X1835150Y3506215D02*
G01*
X1908047Y3397250D01*
X1908047Y3506215D02*
G01*
X1908047Y3397250D01*
X1947418Y3480307D02*
G01*
X1947418Y3485387D01*
X1952752Y3495802D01*
X1957831Y3501136D01*
X1968245Y3506215D01*
X1989074Y3506215D01*
X1999488Y3501136D01*
X2004568Y3495802D01*
X2009902Y3485387D01*
X2009902Y3474973D01*
X2004568Y3464560D01*
X1994154Y3449065D01*
X1942338Y3397250D01*
X2014981Y3397250D01*
X2049272Y3360673D02*
G01*
X2142743Y3360673D01*
X2177034Y3506215D02*
G01*
X2177034Y3397250D01*
X2177034Y3506215D02*
G01*
X2218690Y3397250D01*
X2260345Y3506215D02*
G01*
X2218690Y3397250D01*
X2260345Y3506215D02*
G01*
X2260345Y3397250D01*
X2336038Y3506215D02*
G01*
X2294636Y3397250D01*
X2336038Y3506215D02*
G01*
X2377693Y3397250D01*
X2310129Y3433571D02*
G01*
X2362200Y3433571D01*
X2484627Y3490721D02*
G01*
X2474213Y3501136D01*
X2458720Y3506215D01*
X2437891Y3506215D01*
X2422397Y3501136D01*
X2411984Y3490721D01*
X2411984Y3480307D01*
X2417063Y3469894D01*
X2422397Y3464560D01*
X2432811Y3459479D01*
X2463800Y3449065D01*
X2474213Y3443986D01*
X2479547Y3438652D01*
X2484627Y3428237D01*
X2484627Y3412744D01*
X2474213Y3402329D01*
X2458720Y3397250D01*
X2437891Y3397250D01*
X2422397Y3402329D01*
X2411984Y3412744D01*
X5170677Y3442207D02*
G01*
X5165343Y3452621D01*
X5154929Y3463036D01*
X5144770Y3468115D01*
X5123941Y3468115D01*
X5113527Y3463036D01*
X5103113Y3452621D01*
X5097779Y3442207D01*
X5092700Y3426460D01*
X5092700Y3400552D01*
X5097779Y3385057D01*
X5103113Y3374644D01*
X5113527Y3364229D01*
X5123941Y3359150D01*
X5144770Y3359150D01*
X5154929Y3364229D01*
X5165343Y3374644D01*
X5170677Y3385057D01*
X5236209Y3468115D02*
G01*
X5225795Y3463036D01*
X5215381Y3452621D01*
X5210047Y3442207D01*
X5204968Y3426460D01*
X5204968Y3400552D01*
X5210047Y3385057D01*
X5215381Y3374644D01*
X5225795Y3364229D01*
X5236209Y3359150D01*
X5256784Y3359150D01*
X5267197Y3364229D01*
X5277611Y3374644D01*
X5282945Y3385057D01*
X5288025Y3400552D01*
X5288025Y3426460D01*
X5282945Y3442207D01*
X5277611Y3452621D01*
X5267197Y3463036D01*
X5256784Y3468115D01*
X5236209Y3468115D01*
X5322315Y3468115D02*
G01*
X5322315Y3359150D01*
X5322315Y3468115D02*
G01*
X5394959Y3359150D01*
X5394959Y3468115D02*
G01*
X5394959Y3359150D01*
X5429250Y3468115D02*
G01*
X5429250Y3359150D01*
X5429250Y3468115D02*
G01*
X5502147Y3359150D01*
X5502147Y3468115D02*
G01*
X5502147Y3359150D01*
X5536438Y3447287D02*
G01*
X5546852Y3452621D01*
X5562345Y3468115D01*
X5562345Y3359150D01*
X5596636Y3322573D02*
G01*
X5690108Y3322573D01*
X5724397Y3468115D02*
G01*
X5724397Y3359150D01*
X5724397Y3468115D02*
G01*
X5766054Y3359150D01*
X5807709Y3468115D02*
G01*
X5766054Y3359150D01*
X5807709Y3468115D02*
G01*
X5807709Y3359150D01*
X5883402Y3468115D02*
G01*
X5842000Y3359150D01*
X5883402Y3468115D02*
G01*
X5925058Y3359150D01*
X5857493Y3395471D02*
G01*
X5909309Y3395471D01*
X6031991Y3452621D02*
G01*
X6021577Y3463036D01*
X6006084Y3468115D01*
X5985256Y3468115D01*
X5969761Y3463036D01*
X5959347Y3452621D01*
X5959347Y3442207D01*
X5964427Y3431794D01*
X5969761Y3426460D01*
X5980175Y3421379D01*
X6011163Y3410965D01*
X6021577Y3405886D01*
X6026911Y3400552D01*
X6031991Y3390137D01*
X6031991Y3374644D01*
X6021577Y3364229D01*
X6006084Y3359150D01*
X5985256Y3359150D01*
X5969761Y3364229D01*
X5959347Y3374644D01*
X1960740Y7544422D02*
G01*
X1950326Y7554836D01*
X1934832Y7559916D01*
X1914004Y7559916D01*
X1898510Y7554836D01*
X1888096Y7544422D01*
X1888096Y7534008D01*
X1893176Y7523594D01*
X1898510Y7518260D01*
X1908924Y7513180D01*
X1940166Y7502766D01*
X1950326Y7497686D01*
X1955660Y7492352D01*
X1960740Y7481938D01*
X1960740Y7466444D01*
X1950326Y7456030D01*
X1934832Y7450950D01*
X1914004Y7450950D01*
X1898510Y7456030D01*
X1888096Y7466444D01*
X1995030Y7559916D02*
G01*
X1995030Y7450950D01*
X1995030Y7559916D02*
G01*
X2062594Y7559916D01*
X1995030Y7508100D02*
G01*
X2036686Y7508100D01*
X1995030Y7450950D02*
G01*
X2062594Y7450950D01*
X2096884Y7559916D02*
G01*
X2096884Y7450950D01*
X2096884Y7450950D02*
G01*
X2159368Y7450950D01*
X2193658Y7559916D02*
G01*
X2193658Y7450950D01*
X2193658Y7559916D02*
G01*
X2261222Y7559916D01*
X2193658Y7508100D02*
G01*
X2235060Y7508100D01*
X2193658Y7450950D02*
G01*
X2261222Y7450950D01*
X2373236Y7534008D02*
G01*
X2368156Y7544422D01*
X2357742Y7554836D01*
X2347328Y7559916D01*
X2326500Y7559916D01*
X2316086Y7554836D01*
X2305926Y7544422D01*
X2300592Y7534008D01*
X2295512Y7518260D01*
X2295512Y7492352D01*
X2300592Y7476858D01*
X2305926Y7466444D01*
X2316086Y7456030D01*
X2326500Y7450950D01*
X2347328Y7450950D01*
X2357742Y7456030D01*
X2368156Y7466444D01*
X2373236Y7476858D01*
X2444102Y7559916D02*
G01*
X2444102Y7450950D01*
X2407526Y7559916D02*
G01*
X2480424Y7559916D01*
X4123296Y6721716D02*
G01*
X4123296Y6612750D01*
X4123296Y6721716D02*
G01*
X4159618Y6721716D01*
X4175366Y6716636D01*
X4185526Y6706222D01*
X4190860Y6695808D01*
X4195940Y6680060D01*
X4195940Y6654152D01*
X4190860Y6638658D01*
X4185526Y6628244D01*
X4175366Y6617830D01*
X4159618Y6612750D01*
X4123296Y6612750D01*
X4261472Y6721716D02*
G01*
X4251058Y6716636D01*
X4240644Y6706222D01*
X4235564Y6695808D01*
X4230230Y6680060D01*
X4230230Y6654152D01*
X4235564Y6638658D01*
X4240644Y6628244D01*
X4251058Y6617830D01*
X4261472Y6612750D01*
X4282300Y6612750D01*
X4292714Y6617830D01*
X4303128Y6628244D01*
X4308208Y6638658D01*
X4313542Y6654152D01*
X4313542Y6680060D01*
X4308208Y6695808D01*
X4303128Y6706222D01*
X4292714Y6716636D01*
X4282300Y6721716D01*
X4261472Y6721716D01*
X4347832Y6721716D02*
G01*
X4373740Y6612750D01*
X4399648Y6721716D02*
G01*
X4373740Y6612750D01*
X4399648Y6721716D02*
G01*
X4425556Y6612750D01*
X4451718Y6721716D02*
G01*
X4425556Y6612750D01*
X4486008Y6721716D02*
G01*
X4486008Y6612750D01*
X4486008Y6721716D02*
G01*
X4558652Y6612750D01*
X4558652Y6721716D02*
G01*
X4558652Y6612750D01*
X4123296Y8563216D02*
G01*
X4123296Y8485238D01*
X4128376Y8469744D01*
X4138790Y8459330D01*
X4154538Y8454250D01*
X4164952Y8454250D01*
X4180446Y8459330D01*
X4190860Y8469744D01*
X4195940Y8485238D01*
X4195940Y8563216D01*
X4230230Y8563216D02*
G01*
X4230230Y8454250D01*
X4230230Y8563216D02*
G01*
X4276966Y8563216D01*
X4292714Y8558136D01*
X4297794Y8552802D01*
X4303128Y8542388D01*
X4303128Y8526894D01*
X4297794Y8516480D01*
X4292714Y8511400D01*
X4276966Y8506066D01*
X4230230Y8506066D01*
X6855574Y8537308D02*
G01*
X6850240Y8547722D01*
X6839826Y8558136D01*
X6829666Y8563216D01*
X6808838Y8563216D01*
X6798424Y8558136D01*
X6788010Y8547722D01*
X6782676Y8537308D01*
X6777596Y8521560D01*
X6777596Y8495652D01*
X6782676Y8480158D01*
X6788010Y8469744D01*
X6798424Y8459330D01*
X6808838Y8454250D01*
X6829666Y8454250D01*
X6839826Y8459330D01*
X6850240Y8469744D01*
X6855574Y8480158D01*
X6855574Y8495652D01*
X6829666Y8495652D02*
G01*
X6855574Y8495652D01*
X6921106Y8563216D02*
G01*
X6910692Y8558136D01*
X6900278Y8547722D01*
X6894944Y8537308D01*
X6889864Y8521560D01*
X6889864Y8495652D01*
X6894944Y8480158D01*
X6900278Y8469744D01*
X6910692Y8459330D01*
X6921106Y8454250D01*
X6941680Y8454250D01*
X6952094Y8459330D01*
X6962508Y8469744D01*
X6967842Y8480158D01*
X6972922Y8495652D01*
X6972922Y8521560D01*
X6967842Y8537308D01*
X6962508Y8547722D01*
X6952094Y8558136D01*
X6941680Y8563216D01*
X6921106Y8563216D01*
X7007212Y8563216D02*
G01*
X7007212Y8454250D01*
X7007212Y8563216D02*
G01*
X7079856Y8454250D01*
X7079856Y8563216D02*
G01*
X7079856Y8454250D01*
X7192124Y8537308D02*
G01*
X7187044Y8547722D01*
X7176630Y8558136D01*
X7166216Y8563216D01*
X7145388Y8563216D01*
X7134974Y8558136D01*
X7124560Y8547722D01*
X7119480Y8537308D01*
X7114146Y8521560D01*
X7114146Y8495652D01*
X7119480Y8480158D01*
X7124560Y8469744D01*
X7134974Y8459330D01*
X7145388Y8454250D01*
X7166216Y8454250D01*
X7176630Y8459330D01*
X7187044Y8469744D01*
X7192124Y8480158D01*
X7192124Y8495652D01*
X7166216Y8495652D02*
G01*
X7192124Y8495652D01*
X7031596Y5667616D02*
G01*
X7031596Y5558650D01*
X7031596Y5667616D02*
G01*
X7078332Y5667616D01*
X7093826Y5662536D01*
X7099160Y5657202D01*
X7104240Y5646788D01*
X7104240Y5636374D01*
X7099160Y5625960D01*
X7093826Y5620880D01*
X7078332Y5615800D01*
X7031596Y5615800D01*
X7067918Y5615800D02*
G01*
X7104240Y5558650D01*
X7138530Y5667616D02*
G01*
X7138530Y5558650D01*
X7138530Y5667616D02*
G01*
X7206094Y5667616D01*
X7138530Y5615800D02*
G01*
X7180186Y5615800D01*
X7138530Y5558650D02*
G01*
X7206094Y5558650D01*
X7313282Y5652122D02*
G01*
X7302868Y5662536D01*
X7287120Y5667616D01*
X7266546Y5667616D01*
X7250798Y5662536D01*
X7240384Y5652122D01*
X7240384Y5641708D01*
X7245718Y5631294D01*
X7250798Y5625960D01*
X7261212Y5620880D01*
X7292454Y5610466D01*
X7302868Y5605386D01*
X7307948Y5600052D01*
X7313282Y5589638D01*
X7313282Y5574144D01*
X7302868Y5563730D01*
X7287120Y5558650D01*
X7266546Y5558650D01*
X7250798Y5563730D01*
X7240384Y5574144D01*
X7347572Y5667616D02*
G01*
X7347572Y5558650D01*
X7347572Y5667616D02*
G01*
X7415136Y5667616D01*
X7347572Y5615800D02*
G01*
X7388974Y5615800D01*
X7347572Y5558650D02*
G01*
X7415136Y5558650D01*
X7485748Y5667616D02*
G01*
X7485748Y5558650D01*
X7449426Y5667616D02*
G01*
X7522070Y5667616D01*
D10*
X1054100Y3746500D02*
G01*
X1054100Y3619500D01*
X2120900Y3619500D01*
X2120900Y4178300D01*
X1054100Y4178300D01*
X1054100Y3746500D01*
X4305300Y3771900D02*
G01*
X4305300Y3644900D01*
X5372100Y3644900D01*
X5372100Y4203700D01*
X4305300Y4203700D01*
X4305300Y3771900D01*
X1409700Y7289800D02*
G01*
X2374900Y7289800D01*
X2374900Y6273800D01*
X1409700Y6273800D01*
X1409700Y7289800D01*
X1292349Y7183475D02*
G01*
X1292349Y7381750D01*
X1292349Y7381750D02*
G01*
X2492250Y7381750D01*
X2492250Y7381750D02*
G01*
X2492250Y7184278D01*
X2492250Y6884847D02*
G01*
X2492250Y6677837D01*
X2492250Y6375671D02*
G01*
X2492250Y6181849D01*
X2492250Y6181849D02*
G01*
X1292349Y6181849D01*
X1292349Y6181849D02*
G01*
X1292349Y6379321D01*
X1292349Y6679041D02*
G01*
X1292349Y6884055D01*
X3644900Y6451600D02*
G01*
X4610100Y6451600D01*
X4610100Y5435600D01*
X3644900Y5435600D01*
X3644900Y6451600D01*
X3527549Y6345275D02*
G01*
X3527549Y6543550D01*
X3527549Y6543550D02*
G01*
X4727450Y6543550D01*
X4727450Y6543550D02*
G01*
X4727450Y6346078D01*
X4727450Y6046647D02*
G01*
X4727450Y5839637D01*
X4727450Y5537471D02*
G01*
X4727450Y5343649D01*
X4727450Y5343649D02*
G01*
X3527549Y5343649D01*
X3527549Y5343649D02*
G01*
X3527549Y5541121D01*
X3527549Y5840841D02*
G01*
X3527549Y6045855D01*
X3644900Y8293100D02*
G01*
X4610100Y8293100D01*
X4610100Y7277100D01*
X3644900Y7277100D01*
X3644900Y8293100D01*
X3527549Y8186775D02*
G01*
X3527549Y8385050D01*
X3527549Y8385050D02*
G01*
X4727450Y8385050D01*
X4727450Y8385050D02*
G01*
X4727450Y8187578D01*
X4727450Y7888147D02*
G01*
X4727450Y7681137D01*
X4727450Y7378971D02*
G01*
X4727450Y7185149D01*
X4727450Y7185149D02*
G01*
X3527549Y7185149D01*
X3527549Y7185149D02*
G01*
X3527549Y7382621D01*
X3527549Y7682341D02*
G01*
X3527549Y7887355D01*
X6299200Y8293100D02*
G01*
X7264400Y8293100D01*
X7264400Y7277100D01*
X6299200Y7277100D01*
X6299200Y8293100D01*
X6181849Y8186775D02*
G01*
X6181849Y8385050D01*
X6181849Y8385050D02*
G01*
X7381750Y8385050D01*
X7381750Y8385050D02*
G01*
X7381750Y8187578D01*
X7381750Y7888147D02*
G01*
X7381750Y7681137D01*
X7381750Y7378971D02*
G01*
X7381750Y7185149D01*
X7381750Y7185149D02*
G01*
X6181849Y7185149D01*
X6181849Y7185149D02*
G01*
X6181849Y7382621D01*
X6181849Y7682341D02*
G01*
X6181849Y7887355D01*
X6553200Y5397500D02*
G01*
X7518400Y5397500D01*
X7518400Y4381500D01*
X6553200Y4381500D01*
X6553200Y5397500D01*
X6435849Y5291175D02*
G01*
X6435849Y5489450D01*
X6435849Y5489450D02*
G01*
X7635750Y5489450D01*
X7635750Y5489450D02*
G01*
X7635750Y5291978D01*
X7635750Y4992547D02*
G01*
X7635750Y4785537D01*
X7635750Y4483371D02*
G01*
X7635750Y4289549D01*
X7635750Y4289549D02*
G01*
X6435849Y4289549D01*
X6435849Y4289549D02*
G01*
X6435849Y4487021D01*
X6435849Y4786741D02*
G01*
X6435849Y4991755D01*
G75*
G01
X1621307Y6439433D02*
G03X1621307Y6439433I-90145J0D01*
G75*
G01
X2331390Y6429324D02*
G03X2331390Y6429324I-90145J0D01*
G75*
G01
X1622374Y7141896D02*
G03X1622374Y7141896I-90145J0D01*
G75*
G01
X2332482Y7131761D02*
G03X2332482Y7131761I-90145J0D01*
G75*
G01
X2212696Y6781622D02*
G03X2212696Y6781622I-320167J0D01*
G75*
G01
X3856507Y5601233D02*
G03X3856507Y5601233I-90145J0D01*
G75*
G01
X4566590Y5591124D02*
G03X4566590Y5591124I-90145J0D01*
G75*
G01
X3857574Y6303696D02*
G03X3857574Y6303696I-90145J0D01*
G75*
G01
X4567682Y6293561D02*
G03X4567682Y6293561I-90145J0D01*
G75*
G01
X4447896Y5943422D02*
G03X4447896Y5943422I-320167J0D01*
G75*
G01
X3856507Y7442733D02*
G03X3856507Y7442733I-90145J0D01*
G75*
G01
X4566590Y7432624D02*
G03X4566590Y7432624I-90145J0D01*
G75*
G01
X3857574Y8145196D02*
G03X3857574Y8145196I-90145J0D01*
G75*
G01
X4567682Y8135061D02*
G03X4567682Y8135061I-90145J0D01*
G75*
G01
X4447896Y7784922D02*
G03X4447896Y7784922I-320167J0D01*
G75*
G01
X6510807Y7442733D02*
G03X6510807Y7442733I-90145J0D01*
G75*
G01
X7220890Y7432624D02*
G03X7220890Y7432624I-90145J0D01*
G75*
G01
X6511874Y8145196D02*
G03X6511874Y8145196I-90145J0D01*
G75*
G01
X7221982Y8135061D02*
G03X7221982Y8135061I-90145J0D01*
G75*
G01
X7102196Y7784922D02*
G03X7102196Y7784922I-320167J0D01*
G75*
G01
X6764807Y4547133D02*
G03X6764807Y4547133I-90145J0D01*
G75*
G01
X7474890Y4537024D02*
G03X7474890Y4537024I-90145J0D01*
G75*
G01
X6765874Y5249596D02*
G03X6765874Y5249596I-90145J0D01*
G75*
G01
X7475982Y5239461D02*
G03X7475982Y5239461I-90145J0D01*
G75*
G01
X7356196Y4889322D02*
G03X7356196Y4889322I-320167J0D01*
M02*
